<?xml version="1.0" encoding="UTF-8"?>
<svg width="40px" height="40px" viewBox="0 0 40 40" version="1.1" xmlns="http://www.w3.org/2000/svg" xmlns:xlink="http://www.w3.org/1999/xlink">
    <!-- Generator: Sketch 51.2 (57519) - http://www.bohemiancoding.com/sketch -->
    <title>style / icon / cancel-fill</title>
    <desc>Created with Sketch.</desc>
    <defs>
        <path d="M21.1225003,24.8348109 L25.3038455,29.0161561 C26.3289718,30.0412824 27.9910298,30.0412824 29.0161561,29.0161561 C30.0412824,27.9910298 30.0412824,26.3289718 29.0161561,25.3038455 L24.8348109,21.1225003 L29.0161561,16.9411551 C30.0412824,15.9160288 30.0412824,14.2539708 29.0161561,13.2288445 C27.9910298,12.2037182 26.3289718,12.2037182 25.3038455,13.2288445 L21.1225003,17.4101897 L16.9411551,13.2288445 C15.9160288,12.2037182 14.2539708,12.2037182 13.2288445,13.2288445 C12.2037182,14.2539708 12.2037182,15.9160288 13.2288445,16.9411551 L17.4101897,21.1225003 L13.2288445,25.3038455 C12.2037182,26.3289718 12.2037182,27.9910298 13.2288445,29.0161561 C14.2539708,30.0412824 15.9160288,30.0412824 16.9411551,29.0161561 L21.1225003,24.8348109 Z M21,40.25 C10.3685186,40.25 1.75,31.6314814 1.75,21 C1.75,10.3685186 10.3685186,1.75 21,1.75 C31.6314814,1.75 40.25,10.3685186 40.25,21 C40.25,31.6314814 31.6314814,40.25 21,40.25 Z" id="path-1"></path>
    </defs>
    <g id="Comps" stroke="none" stroke-width="1" fill="none" fill-rule="evenodd">
        <g id="assumptions-large" transform="translate(-1114.000000, -100.000000)">
            <g id="style-/-icon-/-cancel-fill" transform="translate(1113.000000, 99.000000)">
                <rect id="Rectangle" x="0" y="0" width="42" height="42"></rect>
                <mask id="mask-2" fill="white">
                    <use xlink:href="#path-1"></use>
                </mask>
                <use id="Combined-Shape" fill="#1D2432" xlink:href="#path-1"></use>
            </g>
        </g>
    </g>
</svg>