<?xml version="1.0" encoding="UTF-8"?>
<svg width="506px" height="31px" viewBox="0 0 506 31" version="1.1" xmlns="http://www.w3.org/2000/svg" xmlns:xlink="http://www.w3.org/1999/xlink">
    <!-- Generator: Sketch 59 (86127) - https://sketch.com -->
    <title>logos-partners</title>
    <desc>Created with Sketch.</desc>
    <defs>
        <path d="M127.443915,9.33034912 C130.167686,10.5070835 131.523518,12.7601232 131.724956,15.6343533 C131.919131,18.3959069 131.84117,21.1775463 131.881361,23.9503676 C131.885235,24.2496951 131.879908,24.5490226 131.882329,24.8483502 C131.89734,26.7148606 132.128316,26.933355 134.060377,26.7760978 C134.060377,27.5491564 134.052953,28.7810206 134.038103,30.4716904 C132.353642,30.7507362 131.179233,30.8520471 130.514876,30.775623 C128.966321,30.5973002 128.076798,29.5312827 127.624047,27.9121707 C126.038207,29.6165249 124.231561,30.64629 122.078208,30.904956 C119.538443,31.2101623 117.107145,30.8290219 115.128598,29.046284 C111.675584,25.9344535 112.553485,20.5259823 116.874233,18.6467346 C118.244592,18.0510189 119.810578,17.7879438 121.31071,17.6591007 C123.233087,17.4944951 125.179675,17.6189291 127.106894,17.6189291 C127.83517,15.0910567 126.448831,12.8968047 123.888244,12.5636743 C123.147863,12.4676543 122.376975,12.4701038 121.635626,12.5617147 C119.888054,12.7772697 118.798062,13.8976658 118.492515,15.6657068 C118.455714,15.8778325 118.407292,16.0879986 118.345311,16.3917352 C116.861643,16.1120036 115.398796,15.8357013 113.860895,15.5456818 C113.941761,13.8540649 114.531548,12.4147453 115.626867,11.1929404 C117.156052,9.4866265 119.159779,8.77333538 121.351869,8.54259354 C123.435977,8.32262945 125.49878,8.48968459 127.443915,9.33034912 Z M157.071427,8.52741175 C162.709851,9.16061387 165.151172,13.5181601 165.312681,18.222157 C165.344791,19.1421106 165.317473,20.0635322 165.317473,21.1209895 L150.859335,21.1209895 C150.664758,23.5441865 152.484006,26.2154773 154.725957,26.8300846 C156.793459,27.3967369 159.895192,26.8721676 161.491108,22.9564927 C162.841167,23.3587278 164.202249,23.7638988 165.645283,24.1930474 C165.032317,26.1895425 163.960705,27.7862492 162.3576,28.993933 C157.662826,32.5313504 148.298201,31.9451246 146.336134,22.7103562 C145.687703,19.6578718 145.934999,16.6572571 147.26445,13.8137197 C149.202553,9.66952438 153.087866,8.08064705 157.071427,8.52741175 Z M55.2693274,8.53378789 C57.479121,8.76606413 59.5132124,9.43251075 61.0675015,11.1642919 C62.0903395,12.3046017 62.6488217,13.6502358 62.8076295,15.254608 C61.3093334,15.5466685 59.8520667,15.8308883 58.3639073,16.1204986 C58.2750908,15.7564031 58.2094438,15.4422912 58.12111,15.1350397 C57.7841864,13.9589574 57.0770332,13.1146283 55.9045586,12.7613136 C54.480598,12.3325336 53.0503625,12.2997013 51.6732237,12.9514469 C50.6276988,13.4463815 50.1372772,14.2270061 50.2077511,15.1615015 C50.2758116,16.069535 50.8000222,16.7036394 52.0033895,16.9594373 C53.6223602,17.3034413 55.2770505,17.4725032 56.9061579,17.7733842 C57.717574,17.9228447 58.5246459,18.1433601 59.300825,18.4261099 C61.3001621,19.1533208 62.7332939,20.4749432 63.0615289,22.6889181 C63.4307932,25.1782922 62.896446,27.4035379 60.8251868,29.0299617 C59.3838492,30.1609608 57.7069547,30.6710865 55.9238665,30.8818012 C53.8752942,31.1243682 51.8494087,31.0258713 49.90703,30.2819992 C47.1628891,29.2313657 45.4835811,27.2374163 44.9207547,24.1477501 C46.4093968,23.8532395 47.8830753,23.5616691 49.3620634,23.2691187 C49.4446048,23.4342602 49.513148,23.5224664 49.5348695,23.6214533 C50.0976959,26.1858027 53.3812064,27.6737447 55.7885709,27.0028927 C58.3639073,26.2852327 58.66849,24.9528764 58.5956026,23.8556897 C58.5222324,22.7428218 57.8001155,22.0969567 56.8414763,21.8818316 C55.1752012,21.5084255 53.4698274,21.3173121 51.7890713,21.0022201 C50.8458785,20.8253177 49.8959279,20.6253837 48.991351,20.3112718 C44.8039417,18.8583201 44.5157707,13.0504338 47.702546,10.5066659 C49.9480594,8.71461054 52.5131191,8.24417763 55.2693274,8.53378789 Z M105.208781,9.01884488 C107.658696,9.90136325 108.708314,11.927707 109.137945,14.3226977 C109.355425,15.5354926 109.456657,16.7827723 109.469735,18.0159667 C109.51139,22.0079416 109.487656,25.9999166 109.487172,29.9923772 C109.487172,30.0705751 109.466828,30.1492586 109.446969,30.2954545 L104.930756,30.2954545 L104.930756,29.3852512 C104.930756,25.8517778 104.958365,22.3178187 104.913803,18.7848311 C104.899757,17.6895757 104.799009,16.5700354 104.543749,15.5087791 C104.028869,13.3687813 102.613072,12.3080108 100.630569,12.3949512 C98.5647547,12.4852916 97.2845796,13.6524306 96.9150096,15.8448841 C96.7944028,16.5583785 96.7357947,17.2908154 96.7324042,18.0145096 C96.7144827,21.7908334 96.7236856,25.5671572 96.7236856,29.343481 L96.7236856,30.2935117 L92.0723344,30.2935117 L92.0723344,29.4658776 C92.0723344,25.7162673 92.0902559,21.9671428 92.0592565,18.2180182 C92.0519911,17.3359855 91.962868,16.4369533 91.7686379,15.5782343 C91.2741019,13.3901522 90.0457538,12.4396357 87.9029257,12.4668349 C85.9276877,12.4920914 84.59617,13.6019177 84.1626638,15.6889741 C83.9829647,16.5530358 83.8860918,17.4491538 83.8788263,18.3316722 C83.847827,21.9729712 83.8657485,25.6142701 83.8657485,29.2555691 L83.8657485,30.293026 L79.3132075,30.293026 L79.3132075,8.94647546 L83.4259456,8.94647546 C83.5688331,9.6293708 83.70833,10.2952666 83.8541237,10.9922473 C87.4582792,7.34317709 93.032829,7.80604996 95.44012,11.5580887 C96.3487876,10.4113491 97.4749348,9.58857193 98.8272802,9.07081487 C100.952671,8.25775171 103.095984,8.25823742 105.208781,9.01884488 Z M32.5370942,7.75013752 C38.5719615,7.77968764 43.5368826,12.9011841 43.5169212,19.0780579 C43.4973273,25.3029702 38.4366922,30.3470167 32.2636255,30.2950567 C26.0026583,30.2426064 21.0323654,25.2010108 21.0566927,18.9270796 C21.0811991,12.6850107 26.1813896,7.71988457 32.5370942,7.75013752 Z M72.1542888,2.81818182 L72.1542888,8.8528789 L76.5056604,8.8528789 L76.5056604,12.4192531 L72.2096988,12.4192531 C72.1952441,12.7421526 72.175971,12.9767253 72.175971,13.2117807 C72.1745255,16.9900426 72.1721164,20.7678219 72.175971,24.5460838 C72.1778983,26.0988008 72.6457515,26.5679462 74.1769948,26.5775994 C74.8091507,26.5819434 75.4408247,26.5785647 76.1544091,26.5785647 L76.1541093,26.8969444 C76.1528102,27.6427176 76.1472887,28.7521701 76.1375452,30.2253018 L75.7694301,30.2564334 C75.6111353,30.2617603 75.4932792,30.2655891 75.4158622,30.2679197 C73.4848429,30.3260515 72.0322669,30.292137 71.0581344,30.166176 C69.285978,29.9373952 68.2481246,28.7051644 67.8713366,26.9844817 C67.6839062,26.1287257 67.5697135,25.2391834 67.5615224,24.3636383 C67.5282764,20.7200385 67.5475495,17.0754734 67.5475495,13.431391 L67.5475495,12.4173225 L66.6836353,12.4170811 C65.9872359,12.4167594 65.0499235,12.4161158 63.8716981,12.4151505 C63.8800496,10.7176355 63.8842256,9.5371298 63.8842256,8.87363327 L67.5518859,8.87363327 L67.5518859,2.81818182 L72.1542888,2.81818182 Z M140.939194,2.81818182 L140.939194,8.8528789 L145.290566,8.8528789 L145.290566,12.4192531 L140.994604,12.4192531 C140.98015,12.7421526 140.960877,12.9767253 140.960877,13.2117807 C140.959431,16.9900426 140.957022,20.7678219 140.960877,24.5460838 C140.962804,26.0988008 141.430657,26.5679462 142.9619,26.5775994 C143.594056,26.5819434 144.22573,26.5785647 144.939315,26.5785647 L144.939015,26.8969444 C144.937716,27.6427176 144.932194,28.7521701 144.922451,30.2253018 L144.554336,30.2564334 C144.396041,30.2617603 144.278185,30.2655891 144.200768,30.2679197 C142.269749,30.3260515 140.817173,30.292137 139.84304,30.166176 C138.070884,29.9373952 137.03303,28.7051644 136.656242,26.9844817 C136.468812,26.1287257 136.354619,25.2391834 136.346428,24.3636383 C136.313182,20.7200385 136.332455,17.0754734 136.332455,13.431391 L136.332455,12.4173225 L135.468541,12.4170811 C134.772142,12.4167594 133.834829,12.4161158 132.656604,12.4151505 C132.664955,10.7176355 132.669131,9.5371298 132.669131,8.87363327 L136.336792,8.87363327 L136.336792,2.81818182 L140.939194,2.81818182 Z M178.099516,7.82924243 C180.30931,8.06151868 182.343401,8.7279653 183.89769,10.4597464 C184.920528,11.6000562 185.47901,12.9456903 185.637818,14.5500626 C184.139522,14.842123 182.682255,15.1263429 181.194096,15.4159531 C181.105279,15.0518577 181.039632,14.7377457 180.951299,14.4304942 C180.614375,13.2544119 179.907222,12.4100829 178.734747,12.0567682 C177.310787,11.6279882 175.880551,11.5951559 174.503412,12.2469015 C173.457887,12.7418361 172.967466,13.5224607 173.03794,14.4569561 C173.106,15.3649896 173.630211,15.9990939 174.833578,16.2548918 C176.452549,16.5988959 178.107239,16.7679577 179.736347,17.0688388 C180.547763,17.2182992 181.354835,17.4388146 182.131014,17.7215644 C184.130351,18.4487753 185.563483,19.7703977 185.891718,21.9843726 C186.260982,24.4737468 185.726635,26.6989924 183.655376,28.3254162 C182.214038,29.4564153 180.537143,29.966541 178.754055,30.1772557 C176.705483,30.4198227 174.679597,30.3213258 172.737219,29.5774538 C169.993078,28.5268203 168.31377,26.5328708 167.750943,23.4432047 C169.239585,23.1486941 170.713264,22.8571237 172.192252,22.5645732 C172.274794,22.7297148 172.343337,22.8179209 172.365058,22.9169079 C172.927885,25.4812572 176.211395,26.9691992 178.61876,26.2983473 C181.194096,25.5806872 181.498679,24.248331 181.425791,23.1511442 C181.352421,22.0382764 180.630304,21.3924112 179.671665,21.1772862 C178.00539,20.80388 176.300016,20.6127667 174.61926,20.2976746 C173.676067,20.1207723 172.726117,19.9208383 171.82154,19.6067263 C167.63413,18.1537747 167.345959,12.3458884 170.532735,9.80212044 C172.778248,8.01006508 175.343308,7.53963217 178.099516,7.82924243 Z M13.3291342,0.152514759 C18.8101835,0.528651952 21.4915082,5.31537099 20.9991379,10.110759 C20.6492325,13.5229639 19.0720109,16.1771151 15.7447811,17.4264107 C14.5997673,17.8564882 13.3074757,18.0019343 12.0724588,18.0592459 C9.93789133,18.1579759 7.79562311,18.0866976 5.65672399,18.0866976 L4.72300115,18.0866976 L4.72300115,29.5909091 L-3.55271368e-15,29.5909091 L-3.55271368e-15,0.163591782 C0.0866340779,0.125063004 0.13332022,0.0860526167 0.180006362,0.0860526167 C4.5646533,0.0865342265 8.96518316,-0.14656488 13.3291342,0.152514759 Z M122.355185,21.1530515 C121.872896,21.1559908 121.383828,21.1584403 120.911224,21.2402533 C120.440556,21.3220662 119.96892,21.4602173 119.529243,21.6498078 C118.380175,22.1441146 117.714849,23.1493848 117.77005,24.2232406 C117.832031,25.4176113 118.499295,26.4468865 119.716638,26.7246585 C120.734966,26.9568701 121.848201,27.028885 122.880086,26.8848551 C125.737987,26.4846086 127.597899,23.9459585 127.151443,21.1496222 C125.562697,21.1496222 123.958457,21.1437434 122.355185,21.1530515 Z M32.3002508,12.1007052 C28.5283367,12.100215 25.4039573,15.2256612 25.4024917,19.0020785 C25.4010272,22.7966329 28.4760846,25.9176674 32.2587422,25.9603138 C36.0291913,26.0029603 39.2077761,22.8162405 39.1980318,19.0035491 C39.188731,15.2187985 36.0741183,12.1011954 32.3002508,12.1007052 Z M155.829679,12.4083437 C153.198574,12.3794728 151.310792,14.3789039 151.018447,17.5390425 L160.439625,17.5390425 C160.364861,14.386244 158.766069,12.44064 155.829679,12.4083437 Z M11.4766088,4.09882483 C9.53119247,4.20959507 7.57422491,4.12001566 5.62255165,4.12001566 L4.74177186,4.12001566 L4.74177186,14.0363599 C7.40047545,14.0363599 9.98987178,14.0739254 12.5763803,14.0060184 C13.1178433,13.9915702 13.7175436,13.6809319 14.1728538,13.3466947 C15.7683648,12.1734935 16.4123448,10.5095319 16.2544782,8.57875848 C16.0720653,6.33445717 14.4091724,3.93218787 11.4766088,4.09882483 Z" id="path-1"></path>
    </defs>
    <g id="Home" stroke="none" stroke-width="1" fill="none" fill-rule="evenodd">
        <g id="lg-home@2x" transform="translate(-467.000000, -753.000000)">
            <g id="logos" transform="translate(0.000000, 705.000000)">
                <g id="logos-partners" transform="translate(467.000000, 48.000000)">
                    <g id="logo-/-uber-/-black" transform="translate(266.000000, 2.000000)" fill="#1D2432">
                        <g id="Uber_Logo_White_RGB" transform="translate(0.000000, 1.000000)">
                            <path d="M10.8415335,24.2982069 C14.6198083,24.2982069 17.5412141,21.3546667 17.5412141,16.9988966 L17.5412141,0.0463448276 L21.6306709,0.0463448276 L21.6306709,27.515954 L17.5801917,27.515954 L17.5801917,24.9650575 C15.7495208,26.8877241 13.2178914,27.9864828 10.3738019,27.9864828 C4.53035144,27.9864828 0.0504792332,23.7092414 0.0504792332,17.2370575 L0.0504792332,0.0508505747 L4.1399361,0.0508505747 L4.1399361,16.9988966 C4.1399361,21.4331954 7.02236422,24.2982069 10.8402556,24.2982069" id="Path" fill-rule="nonzero"></path>
                            <path d="M24.6702875,0.0469885057 L28.6044728,0.0469885057 L28.6044728,10.0536092 C30.458203,8.14082135 33.0013137,7.06492253 35.6549521,7.0708046 C41.4984026,7.0708046 46.0945687,11.7406897 46.0945687,17.5485977 C46.0945687,23.3172414 41.4984026,27.9865194 35.6549521,27.9865194 C32.9888179,27.9937492 30.4321833,26.9187922 28.5623003,25.0043218 L28.5623003,27.5146667 L24.6645367,27.5146667 L24.6702875,0.0469885057 Z M35.3827476,24.4945287 C39.1226837,24.4945287 42.2,21.393931 42.2,17.5485977 C42.2,13.6633563 39.1226837,10.6026667 35.3827476,10.6026667 C31.6038339,10.6026667 28.5265176,13.6633563 28.5265176,17.5485977 C28.5265176,21.393931 31.5648562,24.4945287 35.3827476,24.4945287 L35.3827476,24.4945287 Z" id="Shape" fill-rule="nonzero"></path>
                            <path d="M57.8600639,7.11006897 C63.5859425,7.11006897 67.7936102,11.5443678 67.7936102,17.5093333 L67.7936102,18.8044138 L51.629393,18.8044138 C52.1750799,22.0614253 54.8626198,24.4945287 58.2108626,24.4945287 C60.5111821,24.4945287 62.457508,23.5521839 63.9373802,21.5509885 L66.7814696,23.669977 C64.7942492,26.3386667 61.8338658,27.9472184 58.2108626,27.9472184 C52.2511182,27.9472184 47.6543131,23.4736552 47.6543131,17.5093333 C47.6543131,11.8584828 52.05623,7.11006897 57.8607029,7.11006897 M51.7054313,15.6651954 L63.8204473,15.6651954 C63.1584665,12.6038621 60.7041534,10.5634023 57.7827476,10.5634023 C54.8613419,10.5634023 52.4070288,12.6038621 51.7054313,15.6651954" id="Shape" fill-rule="nonzero"></path>
                            <path d="M78.3501597,11.0345747 C75.7789137,11.0345747 73.9092652,13.0357701 73.9092652,16.1357241 L73.9092652,27.515954 L69.9744409,27.515954 L69.9744409,7.50271264 L73.8722045,7.50271264 L73.8722045,9.97701149 C74.8460064,8.36781609 76.4434505,7.34758621 78.6249201,7.34758621 L79.9878594,7.34758621 L79.9878594,11.0365057 L78.3501597,11.0345747 Z" id="Path" fill-rule="nonzero"></path>
                        </g>
                    </g>
                    <g id="logo-/-postmates-black">
                        <g id="logo-/-postmates">
                            <mask id="mask-2" fill="white">
                                <use xlink:href="#path-1"></use>
                            </mask>
                            <use id="Combined-Shape" fill="#1D2432" fill-rule="nonzero" xlink:href="#path-1"></use>
                        </g>
                    </g>
                    <g id="logo-/-stride-/-black" transform="translate(426.000000, 0.000000)" fill="#1D2432">
                        <path d="M67.881422,4.47939109 C68.5464112,4.61085303 68.8903426,4.95641012 68.8429418,5.65561428 C68.8002259,6.28894301 68.691645,6.94769734 68.4623574,7.53046378 C67.9056736,8.94505202 67.2541881,10.3183237 66.6545128,11.7144206 C64.5426968,16.6305192 62.4377704,21.5497961 60.3259544,26.4658947 C60.1531619,26.8683705 59.9602517,27.2497546 60.1300127,27.7155054 C60.2956399,28.170566 60.58721,28.4696058 61.0477143,28.4924311 C61.981951,28.5386594 62.8941409,28.4239553 63.7264109,27.9197771 C63.8540072,27.8429224 63.9669975,27.7857148 63.901408,27.5794207 C63.3000792,25.6860798 63.6492468,23.9097546 64.5650193,22.2293532 C66.0509793,19.5033237 68.1553545,17.5397735 71.0986137,16.7362666 C71.9581667,16.5016576 72.9031513,16.3462147 73.771523,16.4626524 C76.0026678,16.7614033 77.1267834,19.2386663 76.13302,21.4336473 C75.6570829,22.4856317 74.9284333,23.3264103 74.1325407,24.1160487 C73.0211021,25.2188843 71.9391512,26.3604362 70.5840945,27.144585 C69.9880019,27.4895643 69.3665553,27.7857148 68.7561322,28.102957 C68.6599526,28.1529414 68.5623952,28.1994587 68.4381058,28.2607113 C69.3045484,28.8116958 70.2084707,28.9171542 71.1424319,28.7316629 C73.4267648,28.2786248 75.5399588,27.4164656 77.3004026,25.7684241 C77.7840561,25.315386 78.2294032,24.8172753 78.699553,24.3477684 C78.9282895,24.1198047 79.1856869,23.9473151 79.5285159,24.0195469 C80.0237441,24.1241386 80.1433485,24.4390694 79.8181569,24.8369224 C77.873346,27.2179726 75.4933847,28.9486473 72.6895721,30.035592 C71.2160134,30.6065124 69.7093844,31.0170781 68.1214574,30.9994536 C67.007263,30.9867408 66.013224,30.6232702 65.2217409,29.7946266 C64.9480839,29.5080106 64.7295441,29.5371923 64.4181319,29.6426508 C63.5315715,29.9428463 62.6469402,30.2655781 61.7405377,30.480829 C60.7266565,30.7217944 59.6901773,30.7428861 58.6581075,30.5233013 C57.4328518,30.2629778 56.8422709,29.6244484 56.6661714,28.3387217 C56.6540456,28.2497321 56.6402663,28.1610314 56.6212509,28.0298584 C56.2707054,28.3918843 55.9672851,28.7556439 55.6167397,29.0593065 C54.3234142,30.1774553 52.8589499,30.8636577 51.1550012,30.8682806 C50.2014734,30.8708809 49.3460543,30.6047788 48.7615362,29.7518653 C48.1196963,29.9529587 47.4990765,30.182656 46.8619215,30.3392546 C45.5561947,30.6602529 44.2460585,30.7856473 42.9064347,30.4822736 C41.3537828,30.1303601 40.7505249,28.603957 41.2556741,27.2390643 C41.7679886,25.8542355 42.3246725,24.4864535 42.8824587,23.1204051 C43.5783135,21.4157338 44.2714124,19.7087511 45.0121878,18.0251715 C45.4831644,16.9544068 46.6662554,16.6735694 47.5065173,17.3678618 C48.0348158,17.8047199 48.1803252,18.4969898 47.9022589,19.1392753 C46.7952296,21.697149 45.6893028,24.2556006 44.5955017,26.8195418 C44.2355863,27.6629207 44.7627824,28.4944535 45.645209,28.5039881 C46.4565344,28.512656 47.2521513,28.4118203 47.9813521,28.0081888 C48.0869015,27.9501144 48.1974116,27.7735798 48.197136,27.6522304 C48.1913487,24.3887961 49.5050674,21.7451109 51.7045198,19.5434846 C53.1480397,18.0979812 54.814233,17.0150815 56.7758547,16.5010798 C57.6632418,16.2687822 58.5710223,16.1835486 59.4493151,16.4828773 C59.9351733,16.6484327 60.3714261,16.9740538 60.8815359,17.2560469 C61.4619201,15.8067874 62.0712409,14.3014759 62.6673336,12.7906749 C63.406731,10.9169811 64.1364829,9.03895341 64.8678883,7.16179249 C65.0420587,6.7148219 65.1735133,6.24589283 65.3824075,5.81770252 C65.9148398,4.72613504 66.804156,4.26616271 67.881422,4.47939109 Z M21.3625897,0.31445933 C23.1651036,0.903709873 24.2263066,2.8309296 23.6055227,4.52256487 C23.1784324,5.68746342 22.4799441,6.70331283 21.5171476,7.50615222 C20.9876805,7.9475113 20.5016029,7.66909331 20.1686654,7.31832138 C19.9897185,7.1299117 20.00957,6.92442649 20.1505155,6.6899997 C20.4332572,6.21969905 20.7216707,5.74505716 20.9340815,5.24002661 C21.4383089,4.03952993 20.5177677,3.14349865 19.5033574,3.06477755 C18.2546997,2.96782327 17.0687159,3.20774895 15.905136,3.61987703 C14.1434595,4.24327864 12.4294265,4.97839474 11.0134492,6.25442894 C10.5197147,6.69926101 10.0653996,7.22744482 9.72083469,7.79788334 C9.10203589,8.82125756 9.13408184,9.91003975 9.91736428,10.823436 C10.5304912,11.5385824 11.248831,12.177323 11.9907089,12.7561546 C14.086741,14.3913538 16.2292822,15.9649074 18.3304189,17.5934501 C18.9132014,18.0452281 19.4412507,18.5794897 19.949732,19.1195395 C21.3424547,20.5987436 21.5801052,22.3236617 20.9227378,24.2193351 C20.2395635,26.1890989 18.9324857,27.6387826 17.2445433,28.7515863 C15.0515226,30.1966393 12.6262397,30.8964467 10.0265474,30.9939798 C9.69871447,31.0064247 9.37003078,30.9957163 9.04163069,30.9957163 C7.0414529,30.979509 5.04836493,30.8463778 3.18005765,30.0426701 C2.4912115,29.7463084 1.80803721,29.3558865 1.23829991,28.8673526 C0.021688158,27.8242981 -0.293950276,26.3123901 0.271533136,24.7417306 C0.80638856,23.2567382 1.81399265,22.1497228 3.03967937,21.2279335 C4.22055847,20.3405847 5.53132293,19.729628 6.94815098,19.3513616 C7.42061605,19.2254657 7.90726075,19.6483022 7.83494467,20.1394407 C7.82275019,20.2219242 7.70052183,20.3075913 7.61033942,20.3544767 C6.98530159,20.6783329 6.33757636,20.9613816 5.73239,21.3188101 C5.25567103,21.6009905 4.79738558,21.9346869 4.38589289,22.3080332 C2.94354152,23.6170608 2.99260302,25.4357496 4.47664248,26.7065744 C5.29906068,27.4104336 6.2794399,27.7296592 7.31852276,27.8196675 C9.53735035,28.012129 11.7059821,27.7504971 13.7708189,26.8579388 C14.8099018,26.4087655 15.6907401,25.7286384 16.3583168,24.7854324 C17.4629095,23.2251919 17.3610998,21.5176387 16.0021246,20.1869049 C15.369997,19.5678446 14.6462689,19.0344513 13.9177199,18.5320255 C12.0780554,17.2629372 10.2267637,16.0094775 8.58249446,14.4778891 C8.04990777,13.9818305 7.558442,13.4264416 7.11915724,12.8424005 C5.67113402,10.916049 5.58236957,8.85714512 6.81372814,6.77479853 C7.80942135,5.09039865 9.24014543,3.85922389 10.8390398,2.8181953 C12.9526546,1.44144441 15.2415296,0.508367908 17.7300536,0.127496732 C18.9497849,-0.0594658666 20.1715013,-0.0748049033 21.3625897,0.31445933 Z M31.9893032,7.75235224 C32.9663575,7.79253982 33.4425222,8.50414705 33.0947053,9.44884225 C32.9260752,9.90640656 32.6827145,10.3349784 32.4721353,10.7758936 C32.4190737,10.8869835 32.3618451,10.995777 32.2782246,11.1622684 C32.8468997,11.0689759 33.3583461,10.9825726 33.8703481,10.9013362 C36.7356704,10.4469295 39.61655,10.1900161 42.5140982,10.0774908 C44.676008,9.99367102 46.8134707,10.1966183 48.9512111,10.4523835 C49.4451556,10.5115167 49.9379888,10.6145691 50.4208209,10.740873 C51.4728837,11.0164449 52.1023989,12.1655227 51.827368,13.264366 C51.5445584,14.3927758 50.4586029,15.0728071 49.3523674,14.7464265 C47.6074489,14.2317384 45.8319714,13.889857 44.0312133,13.7121704 C42.6738384,13.5784032 41.3086848,13.5129549 39.9454759,13.4676003 C37.4590851,13.3843546 34.9757502,13.4770731 32.4968603,13.6903543 C32.0434759,13.7293937 31.5920363,13.7908233 31.1386519,13.8278533 C30.9166825,13.8459377 30.7861123,13.9464066 30.6855454,14.1548079 C29.1650966,17.3109683 27.6324242,20.4608134 26.1153091,23.6184091 C25.5885832,24.71553 25.0835264,25.8244202 24.5993053,26.941922 C24.4784583,27.2206515 24.4131732,27.5593754 24.4340089,27.8625046 C24.4756802,28.468763 24.9107292,28.8692035 25.5032958,28.8640365 C25.9661257,28.8597307 26.4367342,28.8181079 26.8890073,28.7199354 C27.6671503,28.5508605 28.1835973,28.0439228 28.5283583,27.2970079 C29.6526515,24.8581959 30.8027808,22.4320143 31.9545771,19.9756919 C31.5420307,19.6059662 31.276723,19.1934694 31.2845017,18.6265374 C31.2945028,17.9232548 31.5759234,17.4289475 32.2196069,17.1972948 C33.3419553,16.7931226 34.452358,16.8858411 35.5110882,17.4341145 C36.045315,17.7108347 36.1058773,17.9645906 35.8858526,18.5513292 L35.8472474,18.6373392 C35.8423292,18.6515111 35.8394585,18.6654811 35.8405697,18.6790683 C35.8519599,18.8159932 35.8761293,18.9514827 35.8955759,19.0875464 C36.0180897,19.0677397 36.1542161,19.0766383 36.2614504,19.0241074 C37.2412828,18.5427176 38.1936122,17.9924348 39.1995587,17.5810862 C39.9329745,17.2811146 40.7350092,17.1596907 41.5067626,16.959614 C41.5389885,16.9510024 41.573159,16.9507153 41.6062183,16.9487059 C42.8816395,16.874646 43.4141994,17.3979457 43.4028092,18.7135148 C43.3972531,19.3832122 43.2222334,19.9906187 42.8569145,20.5552542 C41.8023514,22.1842865 40.2388422,22.939526 38.4544749,23.2923155 C37.7407835,23.4332591 37.4424166,23.0623852 37.6960562,22.3591025 C37.8552408,21.9173262 38.174999,21.53985 38.3833557,21.1127134 C38.5350395,20.8018338 38.6742218,20.4656934 38.7256165,20.1255342 C38.79618,19.6590712 38.5519858,19.4403359 38.1133254,19.5456848 C36.9190244,19.8324519 35.8094551,20.3405377 34.8907407,21.1787359 C34.5151429,21.5211915 34.2351114,22.0192304 34.0200872,22.4980367 C33.1483224,24.439671 31.9873585,26.2027575 30.9016808,28.0123469 C30.4013468,28.8465262 29.71877,29.507899 28.8747862,29.9565646 C26.9392907,30.9845055 24.8776699,31.2230475 22.7629876,30.8033744 C21.3686641,30.5263671 20.6538615,29.2357717 21.089466,27.8309287 C21.3344936,27.0412427 21.7192591,26.2957631 22.0662426,25.542533 C23.3274955,22.8034623 24.5959716,20.0678363 25.8691703,17.3345067 C26.2681041,16.4782242 26.6912072,15.634285 27.1026424,14.7843177 C27.1501477,14.685571 27.1929303,14.584815 27.2379354,14.4852073 L27.1884854,14.3824419 C25.9008406,14.7521676 24.6073617,15.1017996 23.3286068,15.5008048 C22.7477081,15.681936 22.1954238,15.9603785 21.6311936,16.1974852 C21.1611407,16.3949785 20.7774865,16.2836015 20.6071895,15.8949302 C20.4391151,15.5119999 20.5932991,15.1597845 21.0202916,14.9091862 C23.2658219,13.5916077 25.6894279,12.7574283 28.1758187,12.0954815 C28.3705628,12.0438117 28.4980771,11.960566 28.5916988,11.7610634 C29.0170244,10.8542593 29.458463,9.95549281 29.902124,9.05816155 C30.335506,8.18149819 31.016416,7.71245171 31.9893032,7.75235224 Z M57.8564276,19.1667234 C54.1183782,20.0488185 52.0291602,23.4648065 51.8103449,26.4338238 C51.7284958,27.5499501 52.1151431,27.9007079 53.1786297,27.7198394 C54.4388848,27.5057442 55.404814,26.758867 56.2536191,25.828521 C57.631825,24.3171421 58.5784631,22.5104795 59.4063237,20.62754 C59.6356113,20.1063151 59.8806073,19.5926023 60.1220207,19.0681992 C60.068557,19.0473964 60.0404472,19.0323722 60.0104083,19.025149 C59.2792785,18.8494812 58.5663373,18.9994344 57.8564276,19.1667234 Z M72.2657207,18.7272649 C71.2218007,18.7552908 70.3548069,19.2297095 69.626433,19.9774535 C68.4135787,21.2224414 67.6408353,22.754912 67.1373396,24.4318463 C66.9210045,25.1521421 66.963996,25.9076871 67.2142281,26.6484968 C67.2726524,26.6227823 67.3134391,26.6094916 67.3498165,26.588111 C68.8911693,25.6797234 70.3211854,24.6173376 71.5370712,23.2602459 C72.3668608,22.3339449 73.0070472,21.2834051 73.411332,20.0803116 C73.6042423,19.5073687 73.4372371,19.0104137 72.943938,18.8217441 C72.7339415,18.7414223 72.4917013,18.7211974 72.2657207,18.7272649 Z" id="Combined-Shape"></path>
                    </g>
                </g>
            </g>
        </g>
    </g>
</svg>